HIERARCHY
ROOT Hips
{
    OFFSET 0.000000 0.000000 0.000000
    CHANNELS 6 Xposition Yposition Zposition Zrotation Xrotation Yrotation
        JOINT Spine1
        {
            OFFSET -0.000000 23.269398 0.000000
            CHANNELS 3 Zrotation Xrotation Yrotation
            JOINT Neck
            {
                OFFSET -0.000000 18.032967 0.000000
                CHANNELS 3 Zrotation Xrotation Yrotation
                JOINT Head
                {
                    OFFSET -0.000000 13.091072 1.689171
                    CHANNELS 3 Zrotation Xrotation Yrotation
                    End Site
                    {
                        OFFSET -0.000000 16.891708 0.000000
                    }
                }
            }
            JOINT LeftShoulder
            {
                OFFSET 3.336773 14.146137 -0.012206
                CHANNELS 3 Zrotation Xrotation Yrotation
                JOINT LeftArm
                {
                    OFFSET 11.765518 0.000000 0.000000
                    CHANNELS 3 Zrotation Xrotation Yrotation
                    JOINT LeftForeArm
                    {
                        OFFSET 25.163450 0.000000 0.000000
                        CHANNELS 3 Zrotation Xrotation Yrotation
                        JOINT LeftHand
                        {
                            OFFSET 21.783554 0.000000 0.000000
                            CHANNELS 3 Zrotation Xrotation Yrotation
                            End Site
                            {
                                OFFSET 12.668781 0.000000 0.000000
                            }
                        }
                    }
                }
            }
            JOINT RightShoulder
            {
                OFFSET -3.409204 14.146137 -0.012206
                CHANNELS 3 Zrotation Xrotation Yrotation
                JOINT RightArm
                {
                    OFFSET -11.765518 0.000000 0.000000
                    CHANNELS 3 Zrotation Xrotation Yrotation
                    JOINT RightForeArm
                    {
                        OFFSET -25.163450 0.000000 0.000000
                        CHANNELS 3 Zrotation Xrotation Yrotation
                        JOINT RightHand
                        {
                            OFFSET -21.783554 0.000000 0.000000
                            CHANNELS 3 Zrotation Xrotation Yrotation
                            End Site
                            {
                                OFFSET -12.668781 0.000000 0.000000
                            }
                        }
                    }
                }
            }
        }
        JOINT LeftUpLeg
    {
        OFFSET 8.445854 0.000000 0.000000
        CHANNELS 3 Zrotation Xrotation Yrotation
        JOINT LeftLeg
        {
            OFFSET -0.000000 -40.674755 0.000000
            CHANNELS 3 Zrotation Xrotation Yrotation
            JOINT LeftFoot
            {
                OFFSET -0.000000 -37.111794 0.000000
                CHANNELS 3 Zrotation Xrotation Yrotation
                JOINT LeftToeBase
                {
                    OFFSET -0.000000 -5.489805 12.668781
                    CHANNELS 3 Zrotation Xrotation Yrotation
                    End Site
                    {
                        OFFSET -0.000000 0.000000 3.378341
                    }
                }
            }
        }
    }
    JOINT RightUpLeg
    {
        OFFSET -8.445854 0.000000 0.000000
        CHANNELS 3 Zrotation Xrotation Yrotation
        JOINT RightLeg
        {
            OFFSET -0.000000 -40.674755 0.000000
            CHANNELS 3 Zrotation Xrotation Yrotation
            JOINT RightFoot
            {
                OFFSET -0.000000 -37.111794 0.000000
                CHANNELS 3 Zrotation Xrotation Yrotation
                JOINT RightToeBase
                {
                    OFFSET -0.000000 -5.489805 12.668781
                    CHANNELS 3 Zrotation Xrotation Yrotation
                    End Site
                    {
                        OFFSET -0.000000 0.000000 3.378341
                    }
                }
            }
        }
    }
}
MOTION
Frames:    11
Frame Time:    0.008333
2.555421    83.185616    18.407743    -5.294673    -3.605094    -69.471405    -3.618038    11.167044    1.178316    -1.799657    3.711264    -3.891120    -6.001178    -0.286892    -3.561458    0.232976    8.503582    9.058977    -49.839256    40.493198    -33.560932    3.595076    -3.715289    -17.331167    -1.419968    -3.129234    -3.164747    -2.343446    7.135780    -0.655462    34.939262    48.983921    45.040207    -0.375409    4.529691    25.153616    -12.160086    3.007412    15.015326    1.678893    2.889357    -7.615949    4.687985    14.023556    -0.303239    -7.922008    -10.267522    15.598525    -2.006580    -2.964428    -0.876381    -2.880352    -0.546095    3.405009    -7.938903    20.396555    26.199883    7.868967    -17.803492    7.031177    -1.747677    0.070693    5.267797    
2.498648    83.202904    18.098358    -5.205349    -3.569022    -69.013451    -3.560621    11.104557    1.283903    -1.636634    3.461329    -4.028203    -6.067733    0.102861    -3.643715    0.261681    8.409229    9.105589    -49.768387    40.812176    -33.787037    3.621747    -3.825088    -17.535416    -0.810959    -3.246027    -3.053492    -2.352068    7.067907    -0.937024    34.922146    49.008598    45.046547    -0.278660    4.618805    24.815731    -12.081429    3.093446    14.934451    1.957289    2.589729    -8.109033    4.606805    14.182254    -0.180385    -8.341014    -10.187671    15.545719    -1.849785    -2.837725    -1.047239    -2.647584    -0.546899    3.141906    -7.882770    20.306208    25.992107    7.913377    -17.993534    6.892252    -1.566827    -0.170487    5.190877    
2.442380    83.216637    17.798487    -5.146745    -3.575209    -68.562935    -3.782986    11.211491    1.245284    -1.365199    3.646820    -4.115387    -5.848243    -0.253625    -3.738046    0.453893    8.271305    9.044505    -49.596046    40.870358    -33.943142    3.576823    -3.940106    -17.743433    -0.471172    -3.370315    -3.087989    -2.256266    7.052567    -0.663151    35.343830    48.670147    44.766708    -0.188679    4.653634    24.386890    -12.129246    3.109556    14.859749    2.173151    2.350761    -8.620749    4.571121    14.305233    -0.138601    -8.619162    -10.014235    15.591839    -1.883605    -2.907853    -1.113524    -2.442188    -0.523748    2.943952    -7.813468    20.262960    25.688377    7.924829    -18.128826    6.775998    -1.396130    -0.391588    5.104772    
2.381122    83.230057    17.498552    -5.087380    -3.600155    -68.079216    -3.731032    10.865281    1.190144    -1.393168    3.972384    -4.167634    -5.620177    -0.122984    -3.823292    0.251325    8.467163    9.169748    -49.481998    41.097637    -33.995644    3.618144    -3.907362    -17.940739    -0.137192    -3.333710    -3.099221    -2.312689    7.332658    -0.598205    35.661789    48.559242    44.382179    -0.142248    4.677424    24.117914    -12.188695    3.132573    14.699612    2.381138    2.106100    -9.150800    4.475113    14.435229    0.037465    -8.677337    -9.770486    15.515940    -1.480656    -1.350432    1.290134    -2.247045    -0.484335    2.696253    -7.761817    20.194321    25.532742    7.843996    -18.190277    6.535053    -1.281565    -0.512061    4.991310    
2.332723    83.232155    17.180786    -5.011835    -3.630867    -67.568893    -3.767847    10.696282    1.202031    -1.192068    4.083035    -4.313358    -5.578690    -0.009555    -3.941127    0.202629    8.500471    9.315392    -49.312492    41.405720    -34.182575    3.607056    -3.512275    -17.988974    1.116428    -2.969484    -2.795922    -2.328145    7.394441    -0.637239    36.080406    48.441494    43.964733    -0.027159    4.629082    23.868973    -12.142356    3.080896    14.557846    2.596615    1.797424    -9.542593    4.402067    14.618990    0.145177    -8.978871    -9.622255    15.305504    -2.138141    -3.200340    -1.046940    -2.006354    -0.484427    2.454978    -7.816082    20.135967    25.066391    8.132392    -18.062330    6.521893    -1.036989    -0.911856    5.031210    
2.292186    83.227913    16.840431    -4.919814    -3.639048    -66.991776    -3.838522    10.735993    1.286542    -0.927872    3.822943    -4.542012    -5.479369    0.305324    -4.128595    0.290607    8.339175    9.412560    -49.187279    41.649773    -34.440437    3.592102    -3.403546    -18.080914    1.241061    -2.865151    -2.979087    -2.340128    7.696006    -1.269806    35.710594    48.074585    44.733902    0.309318    4.654476    23.482538    -12.305678    3.029373    14.429315    2.876110    1.457226    -10.225950    4.202245    14.766887    0.354011    -9.212448    -9.441608    15.257141    -1.526026    -1.434679    1.235925    -1.718945    -0.528768    2.282930    -7.832284    20.146164    24.777697    8.075531    -18.043570    6.226231    -1.178220    -0.472562    4.595630    
2.246330    83.216492    16.507833    -4.859943    -3.694538    -66.408356    -3.875932    10.432432    1.114341    -0.872817    4.145149    -4.615014    -5.166339    0.423411    -4.233269    0.089191    8.542853    9.713741    -49.047184    41.891266    -34.527378    3.776109    -3.967858    -17.677870    0.062714    -3.384132    -4.123075    -2.359509    7.554982    -0.606539    36.959755    48.099560    43.110344    0.189503    4.545012    23.370113    -12.284513    2.944813    14.453831    3.111858    1.165460    -10.926478    4.005402    14.911214    0.631344    -9.467465    -9.261828    15.170184    -1.519349    -1.446674    1.189377    -1.427462    -0.476366    2.108015    -7.937438    20.040154    24.250793    7.965220    -18.030741    6.268884    -0.768507    -0.896250    4.160259    
2.220074    83.212639    16.168135    -4.828634    -3.746100    -65.835869    -3.952622    10.379361    1.176645    -0.676144    4.138340    -4.867009    -4.856332    0.679524    -4.490716    0.071236    8.492301    9.817511    -49.033344    42.075691    -34.561520    3.834477    -3.864262    -17.772635    0.330035    -3.278027    -4.224697    -2.385206    7.612489    -0.663980    37.469265    47.939240    42.652538    0.315198    4.472027    23.216259    -12.248745    2.885836    14.131599    3.367306    0.879532    -11.622390    3.779919    15.045485    0.946386    -9.709243    -9.050629    15.051914    -1.549382    -1.503542    1.150700    -1.156177    -0.497614    2.059862    -7.924714    20.132721    23.943928    8.046359    -17.880985    5.866395    -0.613217    -0.767278    3.415484    
2.182661    83.194534    15.821626    -4.761226    -3.820183    -65.161453    -4.105076    10.333232    1.190629    -0.447648    4.174254    -5.129997    -4.440403    0.808188    -4.775025    0.019442    8.507252    9.955047    -48.618408    42.479897    -34.796223    3.953989    -3.949652    -18.033072    0.559467    -3.343604    -4.131793    -2.396189    7.657502    -0.729863    37.943954    47.841656    42.250492    0.378878    4.415393    23.035498    -12.195704    2.830679    14.063597    3.523237    0.545605    -12.312264    3.729178    15.221175    0.894893    -10.003082    -8.912946    15.176991    -1.547155    -1.512404    1.124230    -0.879565    -0.528371    2.001063    -7.958441    20.220736    23.566135    7.685132    -17.894796    5.576139    -0.109269    -1.282505    2.832619    
2.121656    83.163391    15.479064    -4.656365    -3.947255    -64.358345    -4.349054    10.323956    1.151590    -0.218871    4.157507    -5.450059    -3.872361    0.951162    -5.139200    -0.001969    8.499960    10.078683    -48.355717    42.641674    -34.972397    3.992222    -3.910861    -18.197079    0.783689    -3.301091    -4.150574    -2.399945    7.698600    -0.810930    38.286770    47.856377    41.969692    0.375100    4.328316    22.900827    -12.138776    2.767617    13.916522    3.701834    0.218487    -13.078729    3.507315    15.299884    0.992058    -10.218783    -8.724659    15.152728    -2.179737    -3.317318    -1.205678    -0.659836    -0.540972    1.906907    -7.968147    20.352201    23.224766    7.425418    -17.877535    5.125185    -0.415446    -0.703266    2.664131    
2.110455    83.152138    15.132729    -4.624617    -4.002485    -63.656975    -4.530283    10.398075    1.218561    0.022442    4.153619    -5.798276    -3.194009    0.979715    -5.550098    0.030012    8.429933    10.107390    -48.620712    42.328491    -34.921413    3.970923    -3.603741    -18.016584    0.870958    -3.008826    -4.424168    -2.414897    7.771774    -0.916799    38.455242    47.972500    41.857521    0.274960    4.214375    22.818504    -12.110037    2.695135    13.752509    3.909012    -0.108211    -13.883681    3.325771    15.431447    1.264220    -10.461840    -8.543016    15.102661    -1.503318    -1.494866    1.034067    -0.361768    -0.585685    1.936034    -7.972012    20.478930    22.688688    7.174676    -17.616140    4.855389    0.056142    -1.323861    2.379185    
